# xmcd
#
# Track frame offsets:
#	150
#	14986
#	27170
#	38885
#	51647
#	67118
#	81451
#	95358
#	109966
#	126474
#	138011
#	153625
#	169194
#	182586
#	199169
#	214326
#	226491
#	241625
#	255004
#	271737
#	286403
#	299112
#	314291
#	329790
#	343857
#
# Disc length: 4736 seconds
# Revision: 0
# Processed by: cddbd v1.5.2PL0 Copyright (c) Steve Scherf et al.
# Submitted via: dBpowerAMP V12.0
#
DISCID=8c127e19
DTITLE=藤山一郎 - 国民的歌手 藤山一郎全集 ～テイチク・ビクター編～ [Disc1: テイチク編 1]
DYEAR=2011
DGENRE=歌謡曲
TTITLE0=東京ラプソディ
TTITLE1=東京娘
TTITLE2=海軍に入ったけど (We Saw The Sea)
TTITLE3=さらば青春
TTITLE4=恋のそよ風
TTITLE5=嘆きのピエロ
TTITLE6=男の純情
TTITLE7=旅の隊商
TTITLE8=回想譜： 加寿子のうたえる
TTITLE9=青春の謝肉祭
TTITLE10=恋の饗宴 (O Rosalita!)
TTITLE11=聖処女の唄
TTITLE12=青い背広で
TTITLE13=青春日記
TTITLE14=そりゃ無理ないわ (w/奥田英子)
TTITLE15=栄冠は我に
TTITLE16=街のフアンタシィー
TTITLE17=白薔薇は咲けど
TTITLE18=街の辻馬車
TTITLE19=雪の進軍
TTITLE20=馳けろ荒鷲
TTITLE21=歩兵の本領
TTITLE22=白虎隊
TTITLE23=上海血戦譜
TTITLE24=愛国行進曲
EXTD=
EXTT0=
EXTT1=
EXTT2=
EXTT3=
EXTT4=
EXTT5=
EXTT6=
EXTT7=
EXTT8=
EXTT9=
EXTT10=
EXTT11=
EXTT12=
EXTT13=
EXTT14=
EXTT15=
EXTT16=
EXTT17=
EXTT18=
EXTT19=
EXTT20=
EXTT21=
EXTT22=
EXTT23=
EXTT24=
PLAYORDER=
